<svg xmlns="http://www.w3.org/2000/svg" version="1.1" xmlns:xlink="http://www.w3.org/1999/xlink" xmlns:svgjs="http://svgjs.dev/svgjs" width="1000" height="1165" viewBox="0 0 1000 1165"><g transform="matrix(1,0,0,1,1.2314049586776719,-1.648351063829523)"><svg viewBox="0 0 121 141" data-background-color="#ffffff" preserveAspectRatio="xMidYMid meet" height="1165" width="1000" xmlns="http://www.w3.org/2000/svg" xmlns:xlink="http://www.w3.org/1999/xlink"><g id="tight-bounds" transform="matrix(1,0,0,1,-0.1490000000000009,0.19949999999997203)"><svg viewBox="0 0 121.29765287284147 140.60052000000002" height="140.60052000000002" width="121.29765287284147"><g><svg viewBox="0 0 121.29765287284147 140.60052000000002" height="140.60052000000002" width="121.29765287284147"><g><svg viewBox="0 0 121.29765287284147 140.60052000000002" height="140.60052000000002" width="121.29765287284147"><g><path d="M0 140.601v-140.601h121.298v140.601z" fill="#ee3e38" stroke="transparent" stroke-width="0" rx="0%" data-fill-palette-color="tertiary"></path><path d="M3.283 137.317v-134.034h114.731v134.034z" fill="#ffffff" stroke="transparent" stroke-width="0" rx="0%" data-fill-palette-color="quaternary"></path><path d="M9.85 130.751v-120.901h101.598v120.901z" fill="#ee3e38" stroke="transparent" stroke-width="0" data-fill-palette-color="tertiary"></path></g><g transform="matrix(1,0,0,1,19.69974,19.69974)" id="textblocktransform"><svg viewBox="0 0 81.89817287284147 101.20104000000002" height="101.20104000000002" width="81.89817287284147" id="textblock"><g><svg viewBox="0 0 81.89817287284147 101.20104000000002" height="101.20104000000002" width="81.89817287284147"><g transform="matrix(1,0,0,1,0,0)"><svg width="81.89817287284147" viewBox="4.880000114440918 -31.850000381469727 25.770000457763672 31.850000381469727" height="101.20104000000002" data-palette-color="#ffffff"><path d="M9.15-17.25L23.23-31.85 29.78-31.85 9.15-10.68 9.15-17.25ZM11.65-15.43L15-18.53 30.65 0 24.48 0 11.65-15.43ZM4.88 0L4.88-31.85 9.68-31.85 9.68 0 4.88 0Z" opacity="1" transform="matrix(1,0,0,1,0,0)" fill="#ffffff" class="wordmark-text-0" data-fill-palette-color="quaternary" id="text-0"></path></svg></g></svg></g></svg></g></svg></g><g></g></svg></g><defs></defs></svg><rect width="121.29765287284147" height="140.60052000000002" fill="none" stroke="none" visibility="hidden"></rect></g></svg></g></svg>