<svg xmlns="http://www.w3.org/2000/svg" width="1000" height="1165" viewBox="0 0 1000 1165" version="1.1"><path d="M 0 582.503 L 0 1164.002 500.250 1163.751 L 1000.500 1163.500 1000.751 582 L 1001.002 0.500 500.501 0.752 L 0 1.004 0 582.503 M 0.497 582.500 C 0.497 902.600, 0.611 1033.401, 0.750 873.168 C 0.889 712.935, 0.889 451.035, 0.750 291.168 C 0.611 131.301, 0.497 262.400, 0.497 582.500 M 26 582.500 L 26 1136 500 1136 L 974 1136 974 582.500 L 974 29 500 29 L 26 29 26 582.500 M 80 582.500 L 80 1082 500 1082 L 920 1082 920 582.500 L 920 83 500 83 L 80 83 80 582.500 M 162 582.500 L 162 1001.015 224.750 1000.758 L 287.500 1000.500 288 852.869 L 288.500 705.238 326.500 666.132 C 347.400 644.623, 364.761 627.020, 365.081 627.013 C 365.401 627.006, 435.601 711.141, 521.081 813.981 L 676.500 1000.961 757.309 1000.981 C 818.074 1000.995, 837.941 1000.714, 837.406 999.847 C 837.014 999.213, 749.892 895.922, 643.801 770.311 C 537.711 644.701, 450.697 541.375, 450.438 540.698 C 450.178 540.021, 532.179 455.100, 632.663 351.984 L 815.360 164.500 730.005 164.244 C 662.759 164.043, 644.290 164.255, 642.953 165.244 C 642.019 165.935, 561.886 248.837, 464.878 349.471 L 288.500 532.442 288 348.471 L 287.500 164.500 224.750 164.242 L 162 163.985 162 582.500" stroke="none" fill="#ec3d3c" fill-rule="evenodd"/><path d="M 26 582.500 L 26 1136 500 1136 L 974 1136 974 582.500 L 974 29 500 29 L 26 29 26 582.500 M 80 582.500 L 80 1082 500 1082 L 920 1082 920 582.500 L 920 83 500 83 L 80 83 80 582.500 M 162 582.500 L 162 1001.015 224.750 1000.758 L 287.500 1000.500 288 852.869 L 288.500 705.238 326.500 666.132 C 347.400 644.623, 364.761 627.020, 365.081 627.013 C 365.401 627.006, 435.601 711.141, 521.081 813.981 L 676.500 1000.961 757.309 1000.981 C 818.074 1000.995, 837.941 1000.714, 837.406 999.847 C 837.014 999.213, 749.892 895.922, 643.801 770.311 C 537.711 644.701, 450.697 541.375, 450.438 540.698 C 450.178 540.021, 532.179 455.100, 632.663 351.984 L 815.360 164.500 730.005 164.244 C 662.759 164.043, 644.290 164.255, 642.953 165.244 C 642.019 165.935, 561.886 248.837, 464.878 349.471 L 288.500 532.442 288 348.471 L 287.500 164.500 224.750 164.242 L 162 163.985 162 582.500" stroke="none" fill="#fbfbfb" fill-rule="evenodd"/></svg>