{
	"asset":{
		"generator":"Khronos glTF Blender I/O v3.6.27",
		"version":"2.0"
	},
	"scene":0,
	"scenes":[
		{
			"name":"Scene",
			"nodes":[
				0,
				1,
				2,
				3,
				4
			]
		}
	],
	"nodes":[
		{
			"mesh":0,
			"name":"Sphere.001",
			"rotation":[
				0.40875372290611267,
				0,
				0,
				0.9126447439193726
			],
			"scale":[
				0.09993445128202438,
				0.02268827147781849,
				0.1444920003414154
			],
			"translation":[
				-0.40111833810806274,
				0.2551130950450897,
				0.9767438769340515
			]
		},
		{
			"mesh":1,
			"name":"Sphere.002",
			"rotation":[
				0.40878361463546753,
				0,
				0,
				0.9126314520835876
			],
			"scale":[
				0.09993445128202438,
				0.035159509629011154,
				0.1444920003414154
			],
			"translation":[
				0.5134806632995605,
				0.25125017762184143,
				0.9485735297203064
			]
		},
		{
			"mesh":2,
			"name":"Sphere.003",
			"scale":[
				1.276732087135315,
				1.276732087135315,
				1.276732087135315
			],
			"translation":[
				0,
				-2.4192557334899902,
				0
			]
		},
		{
			"mesh":3,
			"name":"Sphere.004",
			"rotation":[
				0.40875372290611267,
				0,
				0,
				0.9126447439193726
			],
			"scale":[
				0.023621443659067154,
				0.005362811964005232,
				0.03415348380804062
			],
			"translation":[
				-0.40111833810806274,
				0.31976574659347534,
				0.9419718384742737
			]
		},
		{
			"mesh":4,
			"name":"Sphere.005",
			"rotation":[
				0.40875372290611267,
				0,
				0,
				0.9126447439193726
			],
			"scale":[
				0.023621443659067154,
				0.005362811964005232,
				0.03415348380804062
			],
			"translation":[
				0.518476665019989,
				0.3123151361942291,
				0.933623194694519
			]
		}
	],
	"materials":[
		{
			"doubleSided":true,
			"name":"Material.004",
			"pbrMetallicRoughness":{
				"baseColorFactor":[
					0,
					0,
					0,
					1
				],
				"metallicFactor":0.9921259880065918,
				"roughnessFactor":0.5
			}
		},
		{
			"doubleSided":true,
			"name":"Material.001",
			"pbrMetallicRoughness":{
				"metallicFactor":0,
				"roughnessFactor":0.5
			}
		},
		{
			"doubleSided":true,
			"name":"Material.002",
			"pbrMetallicRoughness":{
				"baseColorFactor":[
					0.8000000715255737,
					0.17150191962718964,
					0.020579757168889046,
					1
				],
				"metallicFactor":0,
				"roughnessFactor":0.5
			}
		},
		{
			"doubleSided":true,
			"name":"Material.003",
			"pbrMetallicRoughness":{
				"baseColorFactor":[
					0.0835307240486145,
					0.03238461911678314,
					0.014672233723104,
					1
				],
				"metallicFactor":0,
				"roughnessFactor":0.5
			}
		},
		{
			"doubleSided":true,
			"name":"Material.005",
			"pbrMetallicRoughness":{
				"metallicFactor":0.9921259880065918,
				"roughnessFactor":0.5
			}
		}
	],
	"meshes":[
		{
			"name":"Sphere.001",
			"primitives":[
				{
					"attributes":{
						"POSITION":0,
						"NORMAL":1,
						"TEXCOORD_0":2
					},
					"indices":3,
					"material":0
				}
			]
		},
		{
			"name":"Sphere.003",
			"primitives":[
				{
					"attributes":{
						"POSITION":4,
						"NORMAL":5,
						"TEXCOORD_0":6
					},
					"indices":3,
					"material":0
				}
			]
		},
		{
			"name":"Sphere.004",
			"primitives":[
				{
					"attributes":{
						"POSITION":7,
						"NORMAL":8,
						"TEXCOORD_0":9
					},
					"indices":10,
					"material":1
				},
				{
					"attributes":{
						"POSITION":11,
						"NORMAL":12,
						"TEXCOORD_0":13
					},
					"indices":14,
					"material":2
				},
				{
					"attributes":{
						"POSITION":15,
						"NORMAL":16,
						"TEXCOORD_0":17
					},
					"indices":18,
					"material":3
				}
			]
		},
		{
			"name":"Sphere.005",
			"primitives":[
				{
					"attributes":{
						"POSITION":19,
						"NORMAL":20,
						"TEXCOORD_0":21
					},
					"indices":3,
					"material":4
				}
			]
		},
		{
			"name":"Sphere.006",
			"primitives":[
				{
					"attributes":{
						"POSITION":22,
						"NORMAL":23,
						"TEXCOORD_0":24
					},
					"indices":3,
					"material":4
				}
			]
		}
	],
	"accessors":[
		{
			"bufferView":0,
			"componentType":5126,
			"count":296,
			"max":[
				0.9999997019767761,
				1,
				0.9999993443489075
			],
			"min":[
				-0.9999990463256836,
				0,
				-1
			],
			"type":"VEC3"
		},
		{
			"bufferView":1,
			"componentType":5126,
			"count":296,
			"type":"VEC3"
		},
		{
			"bufferView":2,
			"componentType":5126,
			"count":296,
			"type":"VEC2"
		},
		{
			"bufferView":3,
			"componentType":5123,
			"count":1440,
			"type":"SCALAR"
		},
		{
			"bufferView":4,
			"componentType":5126,
			"count":296,
			"max":[
				0.9999997019767761,
				1,
				0.9999993443489075
			],
			"min":[
				-0.9999990463256836,
				0,
				-1
			],
			"type":"VEC3"
		},
		{
			"bufferView":5,
			"componentType":5126,
			"count":296,
			"type":"VEC3"
		},
		{
			"bufferView":6,
			"componentType":5126,
			"count":296,
			"type":"VEC2"
		},
		{
			"bufferView":7,
			"componentType":5126,
			"count":5328,
			"max":[
				1.4224504232406616,
				2.722843647003174,
				0.9493574500083923
			],
			"min":[
				-1.7379969358444214,
				-1.34834623336792,
				-1.4702858924865723
			],
			"type":"VEC3"
		},
		{
			"bufferView":8,
			"componentType":5126,
			"count":5328,
			"type":"VEC3"
		},
		{
			"bufferView":9,
			"componentType":5126,
			"count":5328,
			"type":"VEC2"
		},
		{
			"bufferView":10,
			"componentType":5123,
			"count":29976,
			"type":"SCALAR"
		},
		{
			"bufferView":11,
			"componentType":5126,
			"count":880,
			"max":[
				0.7357785105705261,
				2.075540065765381,
				1.1563977003097534
			],
			"min":[
				-0.7453217506408691,
				-1.7125293016433716,
				-0.12326176464557648
			],
			"type":"VEC3"
		},
		{
			"bufferView":12,
			"componentType":5126,
			"count":880,
			"type":"VEC3"
		},
		{
			"bufferView":13,
			"componentType":5126,
			"count":880,
			"type":"VEC2"
		},
		{
			"bufferView":14,
			"componentType":5123,
			"count":4200,
			"type":"SCALAR"
		},
		{
			"bufferView":15,
			"componentType":5126,
			"count":41,
			"max":[
				0.21674954891204834,
				1.8292487859725952,
				1.0563715696334839
			],
			"min":[
				-0.2167496234178543,
				1.8097915649414062,
				0.7961980700492859
			],
			"type":"VEC3"
		},
		{
			"bufferView":16,
			"componentType":5126,
			"count":41,
			"type":"VEC3"
		},
		{
			"bufferView":17,
			"componentType":5126,
			"count":41,
			"type":"VEC2"
		},
		{
			"bufferView":18,
			"componentType":5123,
			"count":144,
			"type":"SCALAR"
		},
		{
			"bufferView":19,
			"componentType":5126,
			"count":296,
			"max":[
				0.9999997019767761,
				1,
				0.9999993443489075
			],
			"min":[
				-0.9999990463256836,
				0,
				-1
			],
			"type":"VEC3"
		},
		{
			"bufferView":20,
			"componentType":5126,
			"count":296,
			"type":"VEC3"
		},
		{
			"bufferView":21,
			"componentType":5126,
			"count":296,
			"type":"VEC2"
		},
		{
			"bufferView":22,
			"componentType":5126,
			"count":296,
			"max":[
				0.9999997019767761,
				1,
				0.9999993443489075
			],
			"min":[
				-0.9999990463256836,
				0,
				-1
			],
			"type":"VEC3"
		},
		{
			"bufferView":23,
			"componentType":5126,
			"count":296,
			"type":"VEC3"
		},
		{
			"bufferView":24,
			"componentType":5126,
			"count":296,
			"type":"VEC2"
		}
	],
	"bufferViews":[
		{
			"buffer":0,
			"byteLength":3552,
			"byteOffset":0,
			"target":34962
		},
		{
			"buffer":0,
			"byteLength":3552,
			"byteOffset":3552,
			"target":34962
		},
		{
			"buffer":0,
			"byteLength":2368,
			"byteOffset":7104,
			"target":34962
		},
		{
			"buffer":0,
			"byteLength":2880,
			"byteOffset":9472,
			"target":34963
		},
		{
			"buffer":0,
			"byteLength":3552,
			"byteOffset":12352,
			"target":34962
		},
		{
			"buffer":0,
			"byteLength":3552,
			"byteOffset":15904,
			"target":34962
		},
		{
			"buffer":0,
			"byteLength":2368,
			"byteOffset":19456,
			"target":34962
		},
		{
			"buffer":0,
			"byteLength":63936,
			"byteOffset":21824,
			"target":34962
		},
		{
			"buffer":0,
			"byteLength":63936,
			"byteOffset":85760,
			"target":34962
		},
		{
			"buffer":0,
			"byteLength":42624,
			"byteOffset":149696,
			"target":34962
		},
		{
			"buffer":0,
			"byteLength":59952,
			"byteOffset":192320,
			"target":34963
		},
		{
			"buffer":0,
			"byteLength":10560,
			"byteOffset":252272,
			"target":34962
		},
		{
			"buffer":0,
			"byteLength":10560,
			"byteOffset":262832,
			"target":34962
		},
		{
			"buffer":0,
			"byteLength":7040,
			"byteOffset":273392,
			"target":34962
		},
		{
			"buffer":0,
			"byteLength":8400,
			"byteOffset":280432,
			"target":34963
		},
		{
			"buffer":0,
			"byteLength":492,
			"byteOffset":288832,
			"target":34962
		},
		{
			"buffer":0,
			"byteLength":492,
			"byteOffset":289324,
			"target":34962
		},
		{
			"buffer":0,
			"byteLength":328,
			"byteOffset":289816,
			"target":34962
		},
		{
			"buffer":0,
			"byteLength":288,
			"byteOffset":290144,
			"target":34963
		},
		{
			"buffer":0,
			"byteLength":3552,
			"byteOffset":290432,
			"target":34962
		},
		{
			"buffer":0,
			"byteLength":3552,
			"byteOffset":293984,
			"target":34962
		},
		{
			"buffer":0,
			"byteLength":2368,
			"byteOffset":297536,
			"target":34962
		},
		{
			"buffer":0,
			"byteLength":3552,
			"byteOffset":299904,
			"target":34962
		},
		{
			"buffer":0,
			"byteLength":3552,
			"byteOffset":303456,
			"target":34962
		},
		{
			"buffer":0,
			"byteLength":2368,
			"byteOffset":307008,
			"target":34962
		}
	],
	"buffers":[
		{
			"byteLength":309376,
			"uri":"scene.bin"
		}
	]
}
